<svg viewBox="0 0 511 510.64" xmlns="http://www.w3.org/2000/svg" xmlns:xlink="http://www.w3.org/1999/xlink" overflow="hidden"><style>
.MsftOfcResponsive_Fill_eed58e {
 fill:#EED58E; 
}
</style>
<g id="Calque_2"><g id="Calque_1-2"><path d="M89.71 375.29 89.71 405.15 0 345.36 89.65 285.56 89.65 315.4 95.53 315.4C127.95 315.4 160.377 315.4 192.81 315.4 246.2 315.4 285.38 354.6 285.43 407.97 285.43 442.06 285.43 476.14 285.43 510.63L225.55 510.63 225.55 505.47C225.55 473.21 225.55 440.95 225.55 408.69 225.55 387.49 213.32 375.29 192.1 375.28 159.84 375.28 127.58 375.28 95.32 375.28Z" class="MsftOfcResponsive_Fill_eed58e" stroke="none" stroke-width="1" stroke-linecap="butt" stroke-linejoin="miter" stroke-miterlimit="4" fill="#FFFFFF" fill-opacity="1"/><path d="M511 225.57 421.28 285.38 421.28 255.51 415.89 255.51C383.463 255.51 351.033 255.51 318.6 255.51 297.73 255.51 285.46 267.82 285.44 288.71 285.44 300.95 285.44 313.2 285.44 326.27 280.44 321.64 276.33 317.42 271.83 313.63 259.501 303.168 245.084 295.454 229.54 291 226.38 290.1 225.47 288.71 225.54 285.5 225.8 236.85 264.23 196.91 312.99 195.85 346.9 195.12 380.84 195.67 414.77 195.65L421.19 195.65 421.19 165.65Z" class="MsftOfcResponsive_Fill_eed58e" stroke="none" stroke-width="1" stroke-linecap="butt" stroke-linejoin="miter" stroke-miterlimit="4" fill="#FFFFFF" fill-opacity="1"/><path d="M225.7 206.92 225.7 90.11 195.44 90.11 255.49 0C275.55 30.09 295.19 59.56 315.3 89.71L285.44 89.71 285.44 95.32C285.44 118.77 285.49 142.22 285.33 165.68 285.33 167.35 284.07 170.15 282.83 170.52 260.78 177.13 242.05 188.92 225.7 206.92Z" class="MsftOfcResponsive_Fill_eed58e" stroke="none" stroke-width="1" stroke-linecap="butt" stroke-linejoin="miter" stroke-miterlimit="4" fill="#FFFFFF" fill-opacity="1"/></g></g></svg>